<svg width="147" height="103" viewBox="0 0 147 103" fill="none" xmlns="http://www.w3.org/2000/svg">
<path d="M54.0547 35.4213L77.1965 15.3203L146.927 51.6492L123.791 71.7502L54.0547 35.4213Z" fill="#FF8D55"/>
<path d="M146.901 51.6484V71.1029L123.766 91.2038V71.7494L146.901 51.6484Z" fill="#CC4F31"/>
<path d="M54.0547 35.4219V54.8763L123.791 91.2052V71.7508L54.0547 35.4219Z" fill="#E97144"/>
<path d="M123.398 71.3005L146.929 51.6426L124.189 72.2044L123.398 71.3005Z" fill="#FFA478"/>
<path d="M54.0547 35.4219L124.067 71.224L123.516 72.2836L54.0547 35.4219Z" fill="#FFA478"/>
<path d="M50.9038 14.3017L83.5944 14.1074L49.8923 73.291L17.2017 73.4853L50.9038 14.3017Z" fill="#FF8D55"/>
<path d="M83.5913 14.1074L92.4953 29.32L65.1774 77.2886L58.792 88.5017L49.8881 73.289L83.5913 14.1074Z" fill="#CC4F31"/>
<path d="M17.1953 73.3955L26.0993 88.6081L58.7958 88.5046L49.8918 73.2919L17.1953 73.3955Z" fill="#E97144"/>
<path d="M83.5955 14.1081L49.7213 73.0468C47.0547 73.0496 44.3848 73.0333 41.7173 73.0524L33.5444 73.1095C30.8199 73.1253 28.0961 73.1824 25.3699 73.2175C24.0077 73.2345 22.6466 73.2666 21.2831 73.2948C19.9208 73.3249 18.5574 73.3531 17.1969 73.3953C18.5593 73.4279 19.923 73.4493 21.2836 73.4699C22.6472 73.4914 24.007 73.5151 25.3708 73.5233C28.0965 73.541 30.8196 73.5811 33.544 73.5785L41.7188 73.583C44.397 73.5865 47.0748 73.5536 49.7528 73.539L51.9244 77.209L54.1972 80.9848C54.9548 82.2433 55.7104 83.5031 56.4817 84.7537C57.251 86.0054 58.0144 87.2606 58.7954 88.5055C58.0924 87.2149 57.3719 85.9346 56.6572 84.6509C55.9445 83.3661 55.2161 82.0904 54.4897 80.8135L52.3106 76.983L50.1889 73.3178L83.5955 14.1081Z" fill="#FFA478"/>
</svg>
