<svg width="120" height="129" viewBox="0 0 120 129" fill="none" xmlns="http://www.w3.org/2000/svg">
<path d="M67.5373 128.416C58.9543 128.416 50.4228 128.248 42.9706 128.111C37.5227 128.004 32.8115 127.912 29.2138 127.912C15.9197 127.912 0.672614 124.382 0.0216128 119.293C-0.423809 115.748 6.01765 112.6 19.1576 109.941C19.5002 109.865 19.8429 110.064 19.9285 110.369C20.0142 110.675 19.7915 110.98 19.4489 111.057C2.57427 114.48 1.13517 117.857 1.30648 119.156C1.78617 122.991 15.6113 126.751 29.2138 126.751C32.8115 126.751 37.5399 126.842 42.9877 126.949C67.5716 127.423 108.722 128.218 116.585 121.356C117.407 120.638 117.801 119.889 117.801 119.049C117.801 117.674 117.151 116.466 115.797 115.351C103.565 105.25 42.4566 109.33 41.857 109.361C41.5144 109.391 41.1889 109.147 41.1718 108.826C41.1375 108.505 41.4116 108.23 41.7714 108.215C44.3068 108.047 104.045 104.058 116.688 114.495C118.298 115.825 119.104 117.353 119.104 119.034C119.104 120.18 118.555 121.234 117.493 122.166C111.583 127.362 89.3629 128.416 67.5373 128.416Z" fill="white" fill-opacity="0.91"/>
<path d="M58.7578 37.9819L87.8816 110.384C87.8816 110.384 94.5458 93.6359 90.0916 83.3211C85.6374 73.0063 63.7775 31.8848 63.7775 31.8848L58.7578 37.9819Z" fill="#ECE8D9"/>
<path d="M87.8989 110.965C87.6248 110.965 87.385 110.812 87.2993 110.583L58.1756 38.1805C58.107 37.9971 58.1413 37.7985 58.2612 37.6457L63.2807 31.5485C63.4178 31.3804 63.6406 31.304 63.8633 31.3193C64.086 31.3346 64.2915 31.4568 64.3772 31.6402C64.5999 32.0528 86.2885 72.8993 90.7085 83.1071C95.197 93.4982 88.7726 109.88 88.4985 110.567C88.4129 110.812 88.173 110.965 87.8989 110.965ZM59.4776 38.0888L87.8475 108.611C89.338 104.226 93.0212 91.6951 89.4921 83.5349C85.449 74.1981 66.827 39.0057 63.6577 33.0155L59.4776 38.0888Z" fill="black"/>
<path d="M54.1683 37.9809L25.0445 110.383C25.0445 110.383 18.3804 93.6349 22.8346 83.3201C27.2888 73.0053 49.1487 31.8838 49.1487 31.8838L54.1683 37.9809Z" fill="#ECE8D9"/>
<path d="M25.042 110.964C24.7679 110.964 24.5281 110.811 24.4424 110.582C24.1683 109.894 17.744 93.5129 22.2325 83.1217C26.6524 72.9139 48.3582 32.0674 48.5637 31.6548C48.6665 31.4715 48.855 31.3492 49.0777 31.3339C49.3004 31.3187 49.523 31.3951 49.6601 31.5631L54.6796 37.6603C54.7996 37.8131 54.8339 38.0118 54.7654 38.1952L25.6416 110.597C25.556 110.811 25.3161 110.964 25.042 110.964ZM49.2661 33.0148C46.0796 39.005 27.4746 74.1975 23.4316 83.5343C19.9025 91.6944 23.5687 104.225 25.0763 108.611L53.4462 38.0882L49.2661 33.0148Z" fill="black"/>
<path d="M62.014 21.5243C61.8941 16.0536 61.7913 10.583 61.6713 5.09706C61.6542 4.0121 61.5857 2.85075 60.7806 2.01029C59.9411 1.13926 58.5534 0.864175 57.2513 0.696083C55.3326 0.436303 52.9857 0.451601 51.8892 1.81162C51.3068 2.54512 51.2554 3.49254 51.2382 4.37884C51.1354 8.59644 51.0155 12.814 50.9127 17.0163C50.8785 18.5444 50.8441 20.1337 51.5979 21.5396C52.3517 22.9454 53.9107 24.0457 55.6753 24.3971C57.457 24.7639 59.41 24.3971 62.014 21.5243Z" fill="#ECE8D9"/>
<path d="M56.7537 25.0845C56.3596 25.0845 55.9485 25.0387 55.5202 24.9623C53.5672 24.565 51.8369 23.3425 50.9975 21.7838C50.1751 20.2404 50.2094 18.5136 50.2608 17.0008L50.5863 4.36328C50.6035 3.52282 50.6377 2.392 51.3573 1.49042C52.3852 0.206802 54.3895 -0.251608 57.3362 0.13042C58.8095 0.329075 60.317 0.649964 61.2593 1.64324C62.2529 2.66707 62.27 4.07295 62.3043 5.09679L62.6469 21.524C62.6469 21.6615 62.5955 21.7838 62.5099 21.8907C60.5397 24.0607 58.7238 25.0845 56.7537 25.0845ZM55.4345 1.13898C53.9612 1.13898 52.9505 1.47517 52.4194 2.14754C51.974 2.71294 51.9055 3.46172 51.8883 4.39387L51.5628 17.0314C51.5286 18.4219 51.4943 19.9959 52.1795 21.2948C52.8477 22.5479 54.2525 23.5258 55.8286 23.8467C57.1649 24.1218 58.8609 24.0301 61.3621 21.3254L61.0194 5.11209C61.0023 4.01184 60.9338 3.04912 60.2828 2.37675C59.5975 1.67382 58.3811 1.41402 57.1477 1.26121C56.5309 1.1848 55.9484 1.13898 55.4345 1.13898Z" fill="black"/>
<path d="M68.9523 18.7129H43.8716C43.8716 18.7129 41.5418 41.8791 55.8124 41.8791C72.0703 41.7416 68.9523 18.7129 68.9523 18.7129Z" fill="#FE5A0E"/>
<path d="M55.8112 42.4441C52.7789 42.4441 50.2435 41.4508 48.2391 39.5101C41.8319 33.2602 43.151 19.2474 43.2195 18.6514C43.2538 18.361 43.5279 18.1318 43.8534 18.1318H68.934C69.2595 18.1318 69.5336 18.3458 69.5679 18.6361C69.6364 19.1862 71.3324 32.3433 64.891 38.8836C62.6125 41.2216 59.5459 42.4136 55.8112 42.4441ZM44.4701 19.2779C44.2988 21.8757 43.8362 33.5046 49.1984 38.7461C50.9459 40.4423 53.173 41.3133 55.8112 41.3133C59.169 41.2828 61.8929 40.2131 63.9487 38.1348C69.3452 32.6642 68.6086 21.7535 68.3687 19.2779H44.4701V19.2779Z" fill="black"/>
<path d="M86.5823 117.612C86.548 117.612 86.5138 117.612 86.4795 117.596C86.1369 117.535 85.8969 117.245 85.9483 116.939L87.2332 110.277C87.3017 109.971 87.6273 109.757 87.97 109.803C88.3126 109.864 88.5524 110.155 88.501 110.46L87.2162 117.123C87.1648 117.413 86.8907 117.612 86.5823 117.612Z" fill="white"/>
<path d="M26.4339 117.612C26.1255 117.612 25.8514 117.414 25.8 117.139L24.5152 110.476C24.4638 110.171 24.6865 109.865 25.0462 109.819C25.3889 109.773 25.7315 109.972 25.7829 110.293L27.0678 116.955C27.1191 117.261 26.8964 117.567 26.5367 117.612C26.5024 117.612 26.4682 117.612 26.4339 117.612Z" fill="white"/>
<path d="M60.9015 30.2944C60.9015 28.0939 58.9143 26.3213 56.4645 26.3213C54.0147 26.3213 52.0273 28.0939 52.0273 30.2944C52.0273 32.4949 54.0147 34.2675 56.4645 34.2675C58.9143 34.2675 60.9015 32.4796 60.9015 30.2944Z" fill="#ECE8D9"/>
<path d="M56.4474 34.8331C53.6378 34.8331 51.3594 32.7855 51.3594 30.2794C51.3594 27.7733 53.6378 25.7256 56.4474 25.7256C59.257 25.7256 61.5355 27.758 61.5355 30.2794C61.5355 32.8008 59.257 34.8331 56.4474 34.8331ZM56.4474 26.887C54.3574 26.887 52.6442 28.4151 52.6442 30.2946C52.6442 32.1742 54.3574 33.7023 56.4474 33.7023C58.5375 33.7023 60.2506 32.1742 60.2506 30.2946C60.2506 28.4151 58.5546 26.887 56.4474 26.887Z" fill="black"/>
<path d="M55.6726 14.876C55.1073 14.876 54.5248 14.8607 53.9595 14.8455C53.8396 14.8455 53.7539 14.7538 53.7539 14.6468C53.7539 14.5398 53.8567 14.4481 53.9766 14.4634C55.6555 14.5398 57.3516 14.494 59.0133 14.3564C59.1332 14.3564 59.2361 14.4176 59.2532 14.5246C59.2703 14.6315 59.1847 14.7232 59.0648 14.7385C57.9512 14.8302 56.8205 14.876 55.6726 14.876Z" fill="black"/>
<path d="M56.477 10.8267C55.706 10.8267 54.9179 10.8267 54.147 10.8114C54.0271 10.8114 53.9414 10.7197 53.9414 10.6128C53.9414 10.5058 54.0442 10.4294 54.1641 10.4294C55.7745 10.46 57.402 10.46 59.0296 10.4294C59.1495 10.4141 59.2523 10.5058 59.2523 10.6128C59.2523 10.7197 59.1666 10.8114 59.0467 10.8114C58.1901 10.8114 57.3335 10.8267 56.477 10.8267Z" fill="black"/>
<path d="M58.9844 6.10555L54.1704 6.01386C54.0505 6.01386 53.9648 5.92217 53.9648 5.8152C53.9648 5.70823 54.0505 5.63184 54.1876 5.63184L59.0015 5.72352C59.1215 5.72352 59.2071 5.81521 59.2071 5.92218C59.19 6.02915 59.1043 6.10555 58.9844 6.10555Z" fill="black"/>
<g opacity="0.1294">
<path opacity="0.1294" d="M61.4642 40.687C62.9204 39.6785 63.4173 39.4492 64.4109 38.6699C64.7707 38.4101 64.9934 37.9822 65.4559 37.8447C66.7579 37.2946 67.9399 38.8991 66.9121 39.7701C65.7471 40.9315 64.2395 41.8025 62.8176 42.6889C61.31 43.4071 60.0765 41.5428 61.4642 40.687Z" fill="black"/>
</g>
<g opacity="0.1294">
<path opacity="0.1294" d="M51.1201 32.8312C51.103 32.7395 51.103 32.6631 51.1373 32.5562C51.2914 32.0366 52.0623 31.8532 52.4735 32.2353C53.1587 32.9688 53.6726 33.4883 54.2551 33.9467C54.4607 33.8551 54.6834 33.8245 54.9061 33.9161C55.0603 33.9773 55.7285 34.2371 55.2831 34.069C55.7456 34.2829 56.0197 34.2829 56.6364 34.5274C57.5615 34.1912 58.4695 33.6258 59.4461 32.7701C60.0114 32.3728 59.703 32.1741 60.611 31.7615C61.4676 31.5171 62.2728 32.4492 61.7931 33.1368C60.5425 34.9553 58.401 36.3306 56.2596 36.5751C56.0883 36.6515 55.8827 36.6668 55.6771 36.6056C53.8097 36.6362 51.9938 35.7194 50.8459 33.3813C50.7774 33.1674 50.9145 32.9535 51.1201 32.8312Z" fill="black"/>
</g>
<g opacity="0.1294">
<path opacity="0.1294" d="M46.9719 38.4557C47.4173 38.4557 47.7086 38.7308 47.9827 39.0059C48.4453 39.4185 48.9421 39.8311 49.4389 40.2131C50.0556 40.6716 50.3469 40.8549 51.3919 41.4814C51.7688 41.6954 52.2485 41.8788 52.3513 42.3066C52.6425 43.1165 51.5461 43.8653 50.7409 43.4069C49.0106 42.5511 47.6744 41.1758 46.2867 39.938C45.6357 39.449 46.1153 38.4252 46.9719 38.4557Z" fill="black"/>
</g>
</svg>
