<svg width="1920" height="450" viewBox="0 0 1920 450" fill="none" xmlns="http://www.w3.org/2000/svg">
<rect width="1920" height="450" fill="#1E1C2A"/>
<mask id="mask0_471_193" style="mask-type:alpha" maskUnits="userSpaceOnUse" x="0" y="0" width="1920" height="450">
<rect width="1920" height="450" fill="#242237"/>
</mask>
<g mask="url(#mask0_471_193)">
<line y1="101.971" x2="1915.97" y2="101.971" stroke="#24232D"/>
<line y1="150.306" x2="1915.97" y2="150.306" stroke="#24232D"/>
<line y1="198.641" x2="1915.97" y2="198.641" stroke="#24232D"/>
<line y1="246.976" x2="1915.97" y2="246.976" stroke="#24232D"/>
<line y1="295.311" x2="1915.97" y2="295.311" stroke="#24232D"/>
<line y1="343.646" x2="1915.97" y2="343.646" stroke="#24232D"/>
<line y1="391.981" x2="1915.97" y2="391.981" stroke="#24232D"/>
<line y1="440.316" x2="1915.97" y2="440.316" stroke="#24232D"/>
<line y1="53.6348" x2="1915.97" y2="53.6348" stroke="#24232D"/>
<line y1="5.2998" x2="1915.97" y2="5.2998" stroke="#24232D"/>
<line y1="58.7188" x2="1915.97" y2="58.7188" stroke="#24232D" stroke-width="0.5"/>
<line y1="10.3828" x2="1915.97" y2="10.3828" stroke="#24232D" stroke-width="0.5"/>
<line y1="107.055" x2="1915.97" y2="107.055" stroke="#24232D" stroke-width="0.5"/>
<line y1="155.389" x2="1915.97" y2="155.389" stroke="#24232D" stroke-width="0.5"/>
<line y1="203.725" x2="1915.97" y2="203.725" stroke="#24232D" stroke-width="0.5"/>
<line y1="252.06" x2="1915.97" y2="252.06" stroke="#24232D" stroke-width="0.5"/>
<line y1="300.395" x2="1915.97" y2="300.395" stroke="#24232D" stroke-width="0.5"/>
<line y1="348.729" x2="1915.97" y2="348.729" stroke="#24232D" stroke-width="0.5"/>
<line y1="397.064" x2="1915.97" y2="397.064" stroke="#24232D" stroke-width="0.5"/>
<line y1="63.5527" x2="1915.97" y2="63.5527" stroke="#24232D" stroke-width="0.5"/>
<line y1="15.2168" x2="1915.97" y2="15.2168" stroke="#24232D" stroke-width="0.5"/>
<line y1="111.888" x2="1915.97" y2="111.888" stroke="#24232D" stroke-width="0.5"/>
<line y1="160.222" x2="1915.97" y2="160.222" stroke="#24232D" stroke-width="0.5"/>
<line y1="208.558" x2="1915.97" y2="208.558" stroke="#24232D" stroke-width="0.5"/>
<line y1="256.894" x2="1915.97" y2="256.894" stroke="#24232D" stroke-width="0.5"/>
<line y1="305.228" x2="1915.97" y2="305.228" stroke="#24232D" stroke-width="0.5"/>
<line y1="353.562" x2="1915.97" y2="353.562" stroke="#24232D" stroke-width="0.5"/>
<line y1="401.898" x2="1915.97" y2="401.898" stroke="#24232D" stroke-width="0.5"/>
<line y1="68.3857" x2="1915.97" y2="68.3857" stroke="#24232D" stroke-width="0.5"/>
<line y1="20.0508" x2="1915.97" y2="20.0508" stroke="#24232D" stroke-width="0.5"/>
<line y1="116.722" x2="1915.97" y2="116.722" stroke="#24232D" stroke-width="0.5"/>
<line y1="165.056" x2="1915.97" y2="165.056" stroke="#24232D" stroke-width="0.5"/>
<line y1="213.391" x2="1915.97" y2="213.391" stroke="#24232D" stroke-width="0.5"/>
<line y1="261.727" x2="1915.97" y2="261.727" stroke="#24232D" stroke-width="0.5"/>
<line y1="310.061" x2="1915.97" y2="310.061" stroke="#24232D" stroke-width="0.5"/>
<line y1="358.396" x2="1915.97" y2="358.396" stroke="#24232D" stroke-width="0.5"/>
<line y1="406.732" x2="1915.97" y2="406.732" stroke="#24232D" stroke-width="0.5"/>
<line y1="73.2188" x2="1915.97" y2="73.2188" stroke="#24232D" stroke-width="0.5"/>
<line y1="24.8848" x2="1915.97" y2="24.8848" stroke="#24232D" stroke-width="0.5"/>
<line y1="121.555" x2="1915.97" y2="121.555" stroke="#24232D" stroke-width="0.5"/>
<line y1="169.89" x2="1915.97" y2="169.89" stroke="#24232D" stroke-width="0.5"/>
<line y1="218.225" x2="1915.97" y2="218.225" stroke="#24232D" stroke-width="0.5"/>
<line y1="266.56" x2="1915.97" y2="266.56" stroke="#24232D" stroke-width="0.5"/>
<line y1="314.894" x2="1915.97" y2="314.894" stroke="#24232D" stroke-width="0.5"/>
<line y1="363.229" x2="1915.97" y2="363.229" stroke="#24232D" stroke-width="0.5"/>
<line y1="411.565" x2="1915.97" y2="411.565" stroke="#24232D" stroke-width="0.5"/>
<line y1="78.0527" x2="1915.97" y2="78.0527" stroke="#24232D" stroke-width="0.5"/>
<line y1="29.7178" x2="1915.97" y2="29.7178" stroke="#24232D" stroke-width="0.5"/>
<line y1="126.388" x2="1915.97" y2="126.388" stroke="#24232D" stroke-width="0.5"/>
<line y1="174.723" x2="1915.97" y2="174.723" stroke="#24232D" stroke-width="0.5"/>
<line y1="223.059" x2="1915.97" y2="223.059" stroke="#24232D" stroke-width="0.5"/>
<line y1="271.393" x2="1915.97" y2="271.393" stroke="#24232D" stroke-width="0.5"/>
<line y1="319.728" x2="1915.97" y2="319.728" stroke="#24232D" stroke-width="0.5"/>
<line y1="368.063" x2="1915.97" y2="368.063" stroke="#24232D" stroke-width="0.5"/>
<line y1="416.398" x2="1915.97" y2="416.398" stroke="#24232D" stroke-width="0.5"/>
<line y1="82.8857" x2="1915.97" y2="82.8857" stroke="#24232D" stroke-width="0.5"/>
<line y1="34.5518" x2="1915.97" y2="34.5518" stroke="#24232D" stroke-width="0.5"/>
<line y1="131.221" x2="1915.97" y2="131.221" stroke="#24232D" stroke-width="0.5"/>
<line y1="179.557" x2="1915.97" y2="179.557" stroke="#24232D" stroke-width="0.5"/>
<line y1="227.892" x2="1915.97" y2="227.892" stroke="#24232D" stroke-width="0.5"/>
<line y1="276.227" x2="1915.97" y2="276.227" stroke="#24232D" stroke-width="0.5"/>
<line y1="324.562" x2="1915.97" y2="324.562" stroke="#24232D" stroke-width="0.5"/>
<line y1="372.896" x2="1915.97" y2="372.896" stroke="#24232D" stroke-width="0.5"/>
<line y1="421.231" x2="1915.97" y2="421.231" stroke="#24232D" stroke-width="0.5"/>
<line y1="87.7197" x2="1915.97" y2="87.7197" stroke="#24232D" stroke-width="0.5"/>
<line y1="39.3848" x2="1915.97" y2="39.3848" stroke="#24232D" stroke-width="0.5"/>
<line y1="136.055" x2="1915.97" y2="136.055" stroke="#24232D" stroke-width="0.5"/>
<line y1="184.391" x2="1915.97" y2="184.391" stroke="#24232D" stroke-width="0.5"/>
<line y1="232.726" x2="1915.97" y2="232.726" stroke="#24232D" stroke-width="0.5"/>
<line y1="281.061" x2="1915.97" y2="281.061" stroke="#24232D" stroke-width="0.5"/>
<line y1="329.396" x2="1915.97" y2="329.396" stroke="#24232D" stroke-width="0.5"/>
<line y1="377.73" x2="1915.97" y2="377.73" stroke="#24232D" stroke-width="0.5"/>
<line y1="426.065" x2="1915.97" y2="426.065" stroke="#24232D" stroke-width="0.5"/>
<line y1="92.5537" x2="1915.97" y2="92.5537" stroke="#24232D" stroke-width="0.5"/>
<line y1="44.2188" x2="1915.97" y2="44.2188" stroke="#24232D" stroke-width="0.5"/>
<line y1="140.889" x2="1915.97" y2="140.889" stroke="#24232D" stroke-width="0.5"/>
<line y1="189.224" x2="1915.97" y2="189.224" stroke="#24232D" stroke-width="0.5"/>
<line y1="237.559" x2="1915.97" y2="237.559" stroke="#24232D" stroke-width="0.5"/>
<line y1="285.895" x2="1915.97" y2="285.895" stroke="#24232D" stroke-width="0.5"/>
<line y1="334.229" x2="1915.97" y2="334.229" stroke="#24232D" stroke-width="0.5"/>
<line y1="382.564" x2="1915.97" y2="382.564" stroke="#24232D" stroke-width="0.5"/>
<line y1="430.899" x2="1915.97" y2="430.899" stroke="#24232D" stroke-width="0.5"/>
<line y1="97.3867" x2="1915.97" y2="97.3867" stroke="#24232D" stroke-width="0.5"/>
<line y1="49.0518" x2="1915.97" y2="49.0518" stroke="#24232D" stroke-width="0.5"/>
<line y1="145.722" x2="1915.97" y2="145.722" stroke="#24232D" stroke-width="0.5"/>
<line y1="194.058" x2="1915.97" y2="194.058" stroke="#24232D" stroke-width="0.5"/>
<line y1="242.393" x2="1915.97" y2="242.393" stroke="#24232D" stroke-width="0.5"/>
<line y1="290.727" x2="1915.97" y2="290.727" stroke="#24232D" stroke-width="0.5"/>
<line y1="339.062" x2="1915.97" y2="339.062" stroke="#24232D" stroke-width="0.5"/>
<line y1="387.397" x2="1915.97" y2="387.397" stroke="#24232D" stroke-width="0.5"/>
<line y1="435.732" x2="1915.97" y2="435.732" stroke="#24232D" stroke-width="0.5"/>
<line x1="6.54688" y1="1.94668e-08" x2="6.54685" y2="450" stroke="#24232D"/>
<line x1="107.281" y1="1.94668e-08" x2="107.281" y2="450" stroke="#24232D"/>
<line x1="208.016" y1="1.94668e-08" x2="208.016" y2="450" stroke="#24232D"/>
<line x1="308.75" y1="1.94668e-08" x2="308.75" y2="450" stroke="#24232D"/>
<line x1="409.484" y1="1.94668e-08" x2="409.484" y2="450" stroke="#24232D"/>
<line x1="510.219" y1="1.94668e-08" x2="510.219" y2="450" stroke="#24232D"/>
<line x1="610.953" y1="1.94668e-08" x2="610.953" y2="450" stroke="#24232D"/>
<line x1="711.688" y1="1.94668e-08" x2="711.688" y2="450" stroke="#24232D"/>
<line x1="812.422" y1="1.94668e-08" x2="812.422" y2="450" stroke="#24232D"/>
<line x1="913.156" y1="1.94668e-08" x2="913.156" y2="450" stroke="#24232D"/>
<line x1="1013.89" y1="1.94668e-08" x2="1013.89" y2="450" stroke="#24232D"/>
<line x1="1114.62" y1="1.94668e-08" x2="1114.62" y2="450" stroke="#24232D"/>
<line x1="1215.36" y1="1.94668e-08" x2="1215.36" y2="450" stroke="#24232D"/>
<line x1="1316.09" y1="1.94668e-08" x2="1316.09" y2="450" stroke="#24232D"/>
<line x1="1416.83" y1="1.94668e-08" x2="1416.83" y2="450" stroke="#24232D"/>
<line x1="1517.56" y1="1.94668e-08" x2="1517.56" y2="450" stroke="#24232D"/>
<line x1="1618.3" y1="1.94668e-08" x2="1618.3" y2="450" stroke="#24232D"/>
<line x1="1719.03" y1="1.94668e-08" x2="1719.03" y2="450" stroke="#24232D"/>
<line x1="1819.77" y1="1.94668e-08" x2="1819.77" y2="450" stroke="#24232D"/>
<line x1="15.8672" y1="450" x2="15.8671" y2="2.90054" stroke="#24232D" stroke-width="0.5"/>
<line x1="116.602" y1="450" x2="116.602" y2="2.90054" stroke="#24232D" stroke-width="0.5"/>
<line x1="217.336" y1="450" x2="217.336" y2="2.90054" stroke="#24232D" stroke-width="0.5"/>
<line x1="318.07" y1="450" x2="318.07" y2="2.90054" stroke="#24232D" stroke-width="0.5"/>
<line x1="418.805" y1="450" x2="418.805" y2="2.90054" stroke="#24232D" stroke-width="0.5"/>
<line x1="519.539" y1="450" x2="519.539" y2="2.90054" stroke="#24232D" stroke-width="0.5"/>
<line x1="620.273" y1="450" x2="620.273" y2="2.90054" stroke="#24232D" stroke-width="0.5"/>
<line x1="721.008" y1="450" x2="721.008" y2="2.90054" stroke="#24232D" stroke-width="0.5"/>
<line x1="821.742" y1="450" x2="821.742" y2="2.90054" stroke="#24232D" stroke-width="0.5"/>
<line x1="922.477" y1="450" x2="922.477" y2="2.90054" stroke="#24232D" stroke-width="0.5"/>
<line x1="1023.21" y1="450" x2="1023.21" y2="2.90054" stroke="#24232D" stroke-width="0.5"/>
<line x1="1123.95" y1="450" x2="1123.95" y2="2.90054" stroke="#24232D" stroke-width="0.5"/>
<line x1="1224.68" y1="450" x2="1224.68" y2="2.90054" stroke="#24232D" stroke-width="0.5"/>
<line x1="1325.42" y1="450" x2="1325.42" y2="2.90054" stroke="#24232D" stroke-width="0.5"/>
<line x1="1426.15" y1="450" x2="1426.15" y2="2.90054" stroke="#24232D" stroke-width="0.5"/>
<line x1="1526.89" y1="450" x2="1526.89" y2="2.90054" stroke="#24232D" stroke-width="0.5"/>
<line x1="1627.62" y1="450" x2="1627.62" y2="2.90054" stroke="#24232D" stroke-width="0.5"/>
<line x1="1728.36" y1="450" x2="1728.36" y2="2.90054" stroke="#24232D" stroke-width="0.5"/>
<line x1="1829.09" y1="450" x2="1829.09" y2="2.90054" stroke="#24232D" stroke-width="0.5"/>
<line x1="25.9375" y1="450" x2="25.9375" y2="2.90054" stroke="#24232D" stroke-width="0.5"/>
<line x1="126.672" y1="450" x2="126.672" y2="2.90054" stroke="#24232D" stroke-width="0.5"/>
<line x1="227.406" y1="450" x2="227.406" y2="2.90054" stroke="#24232D" stroke-width="0.5"/>
<line x1="328.141" y1="450" x2="328.141" y2="2.90054" stroke="#24232D" stroke-width="0.5"/>
<line x1="428.883" y1="450" x2="428.883" y2="2.90054" stroke="#24232D" stroke-width="0.5"/>
<line x1="529.617" y1="450" x2="529.617" y2="2.90054" stroke="#24232D" stroke-width="0.5"/>
<line x1="630.352" y1="450" x2="630.352" y2="2.90054" stroke="#24232D" stroke-width="0.5"/>
<line x1="731.086" y1="450" x2="731.086" y2="2.90054" stroke="#24232D" stroke-width="0.5"/>
<line x1="831.82" y1="450" x2="831.82" y2="2.90054" stroke="#24232D" stroke-width="0.5"/>
<line x1="932.555" y1="450" x2="932.555" y2="2.90054" stroke="#24232D" stroke-width="0.5"/>
<line x1="1033.29" y1="450" x2="1033.29" y2="2.90054" stroke="#24232D" stroke-width="0.5"/>
<line x1="1134.02" y1="450" x2="1134.02" y2="2.90054" stroke="#24232D" stroke-width="0.5"/>
<line x1="1234.75" y1="450" x2="1234.75" y2="2.90054" stroke="#24232D" stroke-width="0.5"/>
<line x1="1335.49" y1="450" x2="1335.49" y2="2.90054" stroke="#24232D" stroke-width="0.5"/>
<line x1="1436.22" y1="450" x2="1436.22" y2="2.90054" stroke="#24232D" stroke-width="0.5"/>
<line x1="1536.96" y1="450" x2="1536.96" y2="2.90054" stroke="#24232D" stroke-width="0.5"/>
<line x1="1637.7" y1="450" x2="1637.7" y2="2.90054" stroke="#24232D" stroke-width="0.5"/>
<line x1="1738.43" y1="450" x2="1738.43" y2="2.90054" stroke="#24232D" stroke-width="0.5"/>
<line x1="1839.16" y1="450" x2="1839.16" y2="2.90054" stroke="#24232D" stroke-width="0.5"/>
<line x1="36.0156" y1="450" x2="36.0156" y2="2.90054" stroke="#24232D" stroke-width="0.5"/>
<line x1="136.75" y1="450" x2="136.75" y2="2.90054" stroke="#24232D" stroke-width="0.5"/>
<line x1="237.484" y1="450" x2="237.484" y2="2.90054" stroke="#24232D" stroke-width="0.5"/>
<line x1="338.219" y1="450" x2="338.219" y2="2.90054" stroke="#24232D" stroke-width="0.5"/>
<line x1="438.953" y1="450" x2="438.953" y2="2.90054" stroke="#24232D" stroke-width="0.5"/>
<line x1="539.688" y1="450" x2="539.687" y2="2.90054" stroke="#24232D" stroke-width="0.5"/>
<line x1="640.422" y1="450" x2="640.422" y2="2.90054" stroke="#24232D" stroke-width="0.5"/>
<line x1="741.156" y1="450" x2="741.156" y2="2.90054" stroke="#24232D" stroke-width="0.5"/>
<line x1="841.891" y1="450" x2="841.891" y2="2.90054" stroke="#24232D" stroke-width="0.5"/>
<line x1="942.625" y1="450" x2="942.625" y2="2.90054" stroke="#24232D" stroke-width="0.5"/>
<line x1="1043.36" y1="450" x2="1043.36" y2="2.90054" stroke="#24232D" stroke-width="0.5"/>
<line x1="1144.09" y1="450" x2="1144.09" y2="2.90054" stroke="#24232D" stroke-width="0.5"/>
<line x1="1244.83" y1="450" x2="1244.83" y2="2.90054" stroke="#24232D" stroke-width="0.5"/>
<line x1="1345.56" y1="450" x2="1345.56" y2="2.90054" stroke="#24232D" stroke-width="0.5"/>
<line x1="1446.3" y1="450" x2="1446.3" y2="2.90054" stroke="#24232D" stroke-width="0.5"/>
<line x1="1547.03" y1="450" x2="1547.03" y2="2.90054" stroke="#24232D" stroke-width="0.5"/>
<line x1="1647.77" y1="450" x2="1647.77" y2="2.90054" stroke="#24232D" stroke-width="0.5"/>
<line x1="1748.5" y1="450" x2="1748.5" y2="2.90054" stroke="#24232D" stroke-width="0.5"/>
<line x1="1849.23" y1="450" x2="1849.23" y2="2.90054" stroke="#24232D" stroke-width="0.5"/>
<line x1="46.0859" y1="450" x2="46.0859" y2="2.90054" stroke="#24232D" stroke-width="0.5"/>
<line x1="146.82" y1="450" x2="146.82" y2="2.90054" stroke="#24232D" stroke-width="0.5"/>
<line x1="247.555" y1="450" x2="247.555" y2="2.90054" stroke="#24232D" stroke-width="0.5"/>
<line x1="348.289" y1="450" x2="348.289" y2="2.90054" stroke="#24232D" stroke-width="0.5"/>
<line x1="449.023" y1="450" x2="449.023" y2="2.90054" stroke="#24232D" stroke-width="0.5"/>
<line x1="549.758" y1="450" x2="549.758" y2="2.90054" stroke="#24232D" stroke-width="0.5"/>
<line x1="650.492" y1="450" x2="650.492" y2="2.90054" stroke="#24232D" stroke-width="0.5"/>
<line x1="751.227" y1="450" x2="751.227" y2="2.90054" stroke="#24232D" stroke-width="0.5"/>
<line x1="851.961" y1="450" x2="851.961" y2="2.90054" stroke="#24232D" stroke-width="0.5"/>
<line x1="952.695" y1="450" x2="952.695" y2="2.90054" stroke="#24232D" stroke-width="0.5"/>
<line x1="1053.43" y1="450" x2="1053.43" y2="2.90054" stroke="#24232D" stroke-width="0.5"/>
<line x1="1154.17" y1="450" x2="1154.17" y2="2.90054" stroke="#24232D" stroke-width="0.5"/>
<line x1="1254.9" y1="450" x2="1254.9" y2="2.90054" stroke="#24232D" stroke-width="0.5"/>
<line x1="1355.64" y1="450" x2="1355.64" y2="2.90054" stroke="#24232D" stroke-width="0.5"/>
<line x1="1456.37" y1="450" x2="1456.37" y2="2.90054" stroke="#24232D" stroke-width="0.5"/>
<line x1="1557.11" y1="450" x2="1557.11" y2="2.90054" stroke="#24232D" stroke-width="0.5"/>
<line x1="1657.84" y1="450" x2="1657.84" y2="2.90054" stroke="#24232D" stroke-width="0.5"/>
<line x1="1758.57" y1="450" x2="1758.57" y2="2.90054" stroke="#24232D" stroke-width="0.5"/>
<line x1="1859.31" y1="450" x2="1859.31" y2="2.90054" stroke="#24232D" stroke-width="0.5"/>
<line x1="56.1641" y1="450" x2="56.164" y2="2.90054" stroke="#24232D" stroke-width="0.5"/>
<line x1="156.898" y1="450" x2="156.898" y2="2.90054" stroke="#24232D" stroke-width="0.5"/>
<line x1="257.633" y1="450" x2="257.633" y2="2.90054" stroke="#24232D" stroke-width="0.5"/>
<line x1="358.367" y1="450" x2="358.367" y2="2.90054" stroke="#24232D" stroke-width="0.5"/>
<line x1="459.102" y1="450" x2="459.102" y2="2.90054" stroke="#24232D" stroke-width="0.5"/>
<line x1="559.836" y1="450" x2="559.836" y2="2.90054" stroke="#24232D" stroke-width="0.5"/>
<line x1="660.57" y1="450" x2="660.57" y2="2.90054" stroke="#24232D" stroke-width="0.5"/>
<line x1="761.305" y1="450" x2="761.305" y2="2.90054" stroke="#24232D" stroke-width="0.5"/>
<line x1="862.039" y1="450" x2="862.039" y2="2.90054" stroke="#24232D" stroke-width="0.5"/>
<line x1="962.773" y1="450" x2="962.773" y2="2.90054" stroke="#24232D" stroke-width="0.5"/>
<line x1="1063.51" y1="450" x2="1063.51" y2="2.90054" stroke="#24232D" stroke-width="0.5"/>
<line x1="1164.24" y1="450" x2="1164.24" y2="2.90054" stroke="#24232D" stroke-width="0.5"/>
<line x1="1264.98" y1="450" x2="1264.98" y2="2.90054" stroke="#24232D" stroke-width="0.5"/>
<line x1="1365.71" y1="450" x2="1365.71" y2="2.90054" stroke="#24232D" stroke-width="0.5"/>
<line x1="1466.45" y1="450" x2="1466.45" y2="2.90054" stroke="#24232D" stroke-width="0.5"/>
<line x1="1567.18" y1="450" x2="1567.18" y2="2.90054" stroke="#24232D" stroke-width="0.5"/>
<line x1="1667.91" y1="450" x2="1667.91" y2="2.90054" stroke="#24232D" stroke-width="0.5"/>
<line x1="1768.65" y1="450" x2="1768.65" y2="2.90054" stroke="#24232D" stroke-width="0.5"/>
<line x1="1869.38" y1="450" x2="1869.38" y2="2.90054" stroke="#24232D" stroke-width="0.5"/>
<line x1="66.2344" y1="450" x2="66.2343" y2="2.90054" stroke="#24232D" stroke-width="0.5"/>
<line x1="166.969" y1="450" x2="166.969" y2="2.90054" stroke="#24232D" stroke-width="0.5"/>
<line x1="267.703" y1="450" x2="267.703" y2="2.90054" stroke="#24232D" stroke-width="0.5"/>
<line x1="368.438" y1="450" x2="368.437" y2="2.90054" stroke="#24232D" stroke-width="0.5"/>
<line x1="469.172" y1="450" x2="469.172" y2="2.90054" stroke="#24232D" stroke-width="0.5"/>
<line x1="569.906" y1="450" x2="569.906" y2="2.90054" stroke="#24232D" stroke-width="0.5"/>
<line x1="670.641" y1="450" x2="670.641" y2="2.90054" stroke="#24232D" stroke-width="0.5"/>
<line x1="771.375" y1="450" x2="771.375" y2="2.90054" stroke="#24232D" stroke-width="0.5"/>
<line x1="872.109" y1="450" x2="872.109" y2="2.90054" stroke="#24232D" stroke-width="0.5"/>
<line x1="972.844" y1="450" x2="972.844" y2="2.90054" stroke="#24232D" stroke-width="0.5"/>
<line x1="1073.58" y1="450" x2="1073.58" y2="2.90054" stroke="#24232D" stroke-width="0.5"/>
<line x1="1174.31" y1="450" x2="1174.31" y2="2.90054" stroke="#24232D" stroke-width="0.5"/>
<line x1="1275.05" y1="450" x2="1275.05" y2="2.90054" stroke="#24232D" stroke-width="0.5"/>
<line x1="1375.79" y1="450" x2="1375.79" y2="2.90054" stroke="#24232D" stroke-width="0.5"/>
<line x1="1476.52" y1="450" x2="1476.52" y2="2.90054" stroke="#24232D" stroke-width="0.5"/>
<line x1="1577.25" y1="450" x2="1577.25" y2="2.90054" stroke="#24232D" stroke-width="0.5"/>
<line x1="1677.99" y1="450" x2="1677.99" y2="2.90054" stroke="#24232D" stroke-width="0.5"/>
<line x1="1778.72" y1="450" x2="1778.72" y2="2.90054" stroke="#24232D" stroke-width="0.5"/>
<line x1="1879.46" y1="450" x2="1879.46" y2="2.90054" stroke="#24232D" stroke-width="0.5"/>
<line x1="76.3047" y1="450" x2="76.3046" y2="2.90054" stroke="#24232D" stroke-width="0.5"/>
<line x1="177.039" y1="450" x2="177.039" y2="2.90054" stroke="#24232D" stroke-width="0.5"/>
<line x1="277.773" y1="450" x2="277.773" y2="2.90054" stroke="#24232D" stroke-width="0.5"/>
<line x1="378.516" y1="450" x2="378.516" y2="2.90054" stroke="#24232D" stroke-width="0.5"/>
<line x1="479.25" y1="450" x2="479.25" y2="2.90054" stroke="#24232D" stroke-width="0.5"/>
<line x1="579.984" y1="450" x2="579.984" y2="2.90054" stroke="#24232D" stroke-width="0.5"/>
<line x1="680.719" y1="450" x2="680.719" y2="2.90054" stroke="#24232D" stroke-width="0.5"/>
<line x1="781.453" y1="450" x2="781.453" y2="2.90054" stroke="#24232D" stroke-width="0.5"/>
<line x1="882.188" y1="450" x2="882.187" y2="2.90054" stroke="#24232D" stroke-width="0.5"/>
<line x1="982.922" y1="450" x2="982.922" y2="2.90054" stroke="#24232D" stroke-width="0.5"/>
<line x1="1083.65" y1="450" x2="1083.65" y2="2.90054" stroke="#24232D" stroke-width="0.5"/>
<line x1="1184.39" y1="450" x2="1184.39" y2="2.90054" stroke="#24232D" stroke-width="0.5"/>
<line x1="1285.12" y1="450" x2="1285.12" y2="2.90054" stroke="#24232D" stroke-width="0.5"/>
<line x1="1385.86" y1="450" x2="1385.86" y2="2.90054" stroke="#24232D" stroke-width="0.5"/>
<line x1="1486.59" y1="450" x2="1486.59" y2="2.90054" stroke="#24232D" stroke-width="0.5"/>
<line x1="1587.33" y1="450" x2="1587.33" y2="2.90054" stroke="#24232D" stroke-width="0.5"/>
<line x1="1688.06" y1="450" x2="1688.06" y2="2.90054" stroke="#24232D" stroke-width="0.5"/>
<line x1="1788.8" y1="450" x2="1788.8" y2="2.90054" stroke="#24232D" stroke-width="0.5"/>
<line x1="1889.53" y1="450" x2="1889.53" y2="2.90054" stroke="#24232D" stroke-width="0.5"/>
<line x1="86.3828" y1="450" x2="86.3828" y2="2.90054" stroke="#24232D" stroke-width="0.5"/>
<line x1="187.117" y1="450" x2="187.117" y2="2.90054" stroke="#24232D" stroke-width="0.5"/>
<line x1="287.852" y1="450" x2="287.852" y2="2.90054" stroke="#24232D" stroke-width="0.5"/>
<line x1="388.586" y1="450" x2="388.586" y2="2.90054" stroke="#24232D" stroke-width="0.5"/>
<line x1="489.32" y1="450" x2="489.32" y2="2.90054" stroke="#24232D" stroke-width="0.5"/>
<line x1="590.055" y1="450" x2="590.055" y2="2.90054" stroke="#24232D" stroke-width="0.5"/>
<line x1="690.789" y1="450" x2="690.789" y2="2.90054" stroke="#24232D" stroke-width="0.5"/>
<line x1="791.523" y1="450" x2="791.523" y2="2.90054" stroke="#24232D" stroke-width="0.5"/>
<line x1="892.258" y1="450" x2="892.258" y2="2.90054" stroke="#24232D" stroke-width="0.5"/>
<line x1="992.992" y1="450" x2="992.992" y2="2.90054" stroke="#24232D" stroke-width="0.5"/>
<line x1="1093.73" y1="450" x2="1093.73" y2="2.90054" stroke="#24232D" stroke-width="0.5"/>
<line x1="1194.46" y1="450" x2="1194.46" y2="2.90054" stroke="#24232D" stroke-width="0.5"/>
<line x1="1295.2" y1="450" x2="1295.2" y2="2.90054" stroke="#24232D" stroke-width="0.5"/>
<line x1="1395.93" y1="450" x2="1395.93" y2="2.90054" stroke="#24232D" stroke-width="0.5"/>
<line x1="1496.66" y1="450" x2="1496.66" y2="2.90054" stroke="#24232D" stroke-width="0.5"/>
<line x1="1597.4" y1="450" x2="1597.4" y2="2.90054" stroke="#24232D" stroke-width="0.5"/>
<line x1="1698.13" y1="450" x2="1698.13" y2="2.90054" stroke="#24232D" stroke-width="0.5"/>
<line x1="1798.87" y1="450" x2="1798.87" y2="2.90054" stroke="#24232D" stroke-width="0.5"/>
<line x1="1899.6" y1="450" x2="1899.6" y2="2.90054" stroke="#24232D" stroke-width="0.5"/>
<line x1="96.4531" y1="450" x2="96.4531" y2="2.90054" stroke="#24232D" stroke-width="0.5"/>
<line x1="197.188" y1="450" x2="197.187" y2="2.90054" stroke="#24232D" stroke-width="0.5"/>
<line x1="297.922" y1="450" x2="297.922" y2="2.90054" stroke="#24232D" stroke-width="0.5"/>
<line x1="398.656" y1="450" x2="398.656" y2="2.90054" stroke="#24232D" stroke-width="0.5"/>
<line x1="499.391" y1="450" x2="499.391" y2="2.90054" stroke="#24232D" stroke-width="0.5"/>
<line x1="600.125" y1="450" x2="600.125" y2="2.90054" stroke="#24232D" stroke-width="0.5"/>
<line x1="700.859" y1="450" x2="700.859" y2="2.90054" stroke="#24232D" stroke-width="0.5"/>
<line x1="801.594" y1="450" x2="801.594" y2="2.90054" stroke="#24232D" stroke-width="0.5"/>
<line x1="902.328" y1="450" x2="902.328" y2="2.90054" stroke="#24232D" stroke-width="0.5"/>
<line x1="1003.06" y1="450" x2="1003.06" y2="2.90054" stroke="#24232D" stroke-width="0.5"/>
<line x1="1103.8" y1="450" x2="1103.8" y2="2.90054" stroke="#24232D" stroke-width="0.5"/>
<line x1="1204.54" y1="450" x2="1204.54" y2="2.90054" stroke="#24232D" stroke-width="0.5"/>
<line x1="1305.27" y1="450" x2="1305.27" y2="2.90054" stroke="#24232D" stroke-width="0.5"/>
<line x1="1406" y1="450" x2="1406" y2="2.90054" stroke="#24232D" stroke-width="0.5"/>
<line x1="1506.74" y1="450" x2="1506.74" y2="2.90054" stroke="#24232D" stroke-width="0.5"/>
<line x1="1607.47" y1="450" x2="1607.47" y2="2.90054" stroke="#24232D" stroke-width="0.5"/>
<line x1="1708.21" y1="450" x2="1708.21" y2="2.90054" stroke="#24232D" stroke-width="0.5"/>
<line x1="1808.94" y1="450" x2="1808.94" y2="2.90054" stroke="#24232D" stroke-width="0.5"/>
<line x1="1909.68" y1="450" x2="1909.68" y2="2.90054" stroke="#24232D" stroke-width="0.5"/>
</g>
</svg>
